<?xml version="1.0" encoding="UTF-8"?><svg id="Layer_1" xmlns="http://www.w3.org/2000/svg" viewBox="0 0 374.62 294.45"><defs><style>.cls-1{fill:#1a67d7;}</style></defs><path class="cls-1" d="m44.84,294.45h0c179.33-25.54,242.53-64.1,280.39-94.15,3.28-2.6,7.91,1.14,5.82,4.7l-37.64,89.45h38.32c23.68,0,42.87-19.2,42.87-42.87V42.87c0-23.68-19.2-42.87-42.87-42.87H42.87C19.04,0-.22,19.44,0,43.28l1.97,208.7c.22,23.52,19.35,42.47,42.87,42.47Zm211.85-209.18c9.08,18.25,31.47,51.44,33.38,96.3.42,9.86-5.05,19.04-13.97,23.81-18.37,9.82-59.27,30.13-95.44,36.06,0,0,7.33-69.63-30.76-125.73l87.96-37.2c7.09-3,15.45-.04,18.83,6.75ZM179.43,18.58l15.86,34.6c3.7,8.08.15,17.51-8.09,21.19-36.19,16.17-67.56-9.9-81.01,45.35-21.39-71.57,47.4-49.08,73.24-101.14Zm-57.19,130.76c7.99-3.21,17.21.38,20.82,8.03,6.74,14.29,15.22,39.6,13.09,73.72-.69,11-8.13,20.47-19.04,23.81-14.66,4.49-37.93,10.71-66.28,15.18,0,0,9.05-43.92-16.06-93.6l67.47-27.15Z"/></svg>